<svg id="svg_search_blue" data-name="Layer 1" xmlns="http://www.w3.org/2000/svg" xmlns:xlink="http://www.w3.org/1999/xlink" viewBox="0 0 97.39 94.95">

    <polygon points="48.7 0 9.64 18.81 0 61.06 27.02 94.95 70.37 94.95 97.39 61.06 87.75 18.81 48.7 0" style="fill: #46c9e4"/>
    <path d="M74.28,69.84a1.75,1.75,0,0,0-.66-1.17L51.69,51.28l1.65-2.06a2.53,2.53,0,0,0,.49-2.14L51.29,35.94a2.51,2.51,0,0,0-1.37-1.71l-10.3-5a2.51,2.51,0,0,0-2.19,0l-10.3,5a2.48,2.48,0,0,0-1.36,1.71L23.22,47.08a2.57,2.57,0,0,0,.49,2.14l7.12,8.92a2.5,2.5,0,0,0,2,1H44.24a2.48,2.48,0,0,0,2-.94L48,55.91,70,73.3a1.7,1.7,0,0,0,1.09.38h.2A1.74,1.74,0,0,0,72.41,73l1.5-1.89A1.77,1.77,0,0,0,74.28,69.84ZM48.65,47l-5.62,7H34l-5.61-7,2-8.78,8.12-3.91,8.11,3.91Z" style="fill: #fff"/>

</svg>
